<?xml version="1.0" encoding="UTF-8"?>
<!-- SuperTux-inspired ksnip_py theme artwork, GPL-3.0. Original vector artwork; no SuperTux game asset copied. -->
<svg xmlns="http://www.w3.org/2000/svg" width="64" height="64" viewBox="0 0 64 64">

  <!-- compact Tux body -->
  <ellipse cx="32" cy="50" rx="16" ry="12" fill="#202124"/>
  <ellipse cx="25" cy="58" rx="8" ry="3.2" fill="#ff9800" stroke="#8a4b08" stroke-width="1.2" transform="rotate(-8 25 58)"/>
  <ellipse cx="39" cy="58" rx="8" ry="3.2" fill="#ff9800" stroke="#8a4b08" stroke-width="1.2" transform="rotate(8 39 58)"/>
  
  <!-- head -->
  <ellipse cx="32" cy="29" rx="23.5" ry="26" fill="#202124"/>
  <!-- characteristic pale eye patches -->
  <ellipse cx="23" cy="27" rx="11.5" ry="15.5" fill="#f7f4d7"/>
  <ellipse cx="41" cy="27" rx="11.5" ry="15.5" fill="#f7f4d7"/>
  <ellipse cx="32" cy="42" rx="16.5" ry="11.5" fill="#f7f4d7"/>
  
  <circle cx="23" cy="25" r="2.8"/><circle cx="41" cy="25" r="2.8"/>
  <g transform="rotate(0 32 35)"><path d="M25 35 L32 29.8 L39 35 L32 41 Z" fill="#ff9800" stroke="#8a4b08" stroke-width="1.5" stroke-linejoin="round"/><path d="M25.8 35 H38.2" stroke="#8a4b08" stroke-width="1" stroke-linecap="round"/></g>
  <circle cx="49" cy="44" r="12" fill="#ffe082" stroke="#263238" stroke-width="2"/>
<path d="M43 43 Q43 37 49 37 Q55 37 55 43 Q55 47 52 49 V52 H46 V49 Q43 47 43 43Z" fill="#ffd54f" stroke="#8a6500" stroke-width="1.4"/>
<path d="M46 55 H52" stroke="#8a6500" stroke-width="2" stroke-linecap="round"/>
</svg>
