<svg xmlns="http://www.w3.org/2000/svg" viewBox="0 0 48 48">
<rect x="4" y="12" width="40" height="25" rx="3" fill="#d8d8d8"/><g fill="#656565">
<rect x="8" y="16" width="5" height="4" rx="1"/><rect x="15" y="16" width="5" height="4" rx="1"/><rect x="22" y="16" width="5" height="4" rx="1"/><rect x="29" y="16" width="5" height="4" rx="1"/><rect x="36" y="16" width="4" height="4" rx="1"/>
<rect x="8" y="23" width="5" height="4" rx="1"/><rect x="15" y="23" width="5" height="4" rx="1"/><rect x="22" y="23" width="5" height="4" rx="1"/><rect x="29" y="23" width="5" height="4" rx="1"/><rect x="36" y="23" width="4" height="4" rx="1"/>
<rect x="12" y="30" width="24" height="4" rx="1"/></g>
</svg>
