<svg xmlns="http://www.w3.org/2000/svg" width="48" height="48" version="1">

 <path style="opacity:0.2" d="M24 5C12.92 5 4 13.92 4 25s8.92 20 20 20 20-8.92 20-20S35.08 5 24 5z"/>
 <path style="fill:#ffa50c" d="M24 4C12.92 4 4 12.92 4 24s8.92 20 20 20 20-8.92 20-20S35.08 4 24 4z"/>
 <path style="opacity:0.2;fill:#fff" d="M24 4C12.92 4 4 12.92 4 24c0 .168-.004.333 0 .5C4.264 13.654 13.088 5 24 5s19.736 8.654 20 19.5c.004-.167 0-.332 0-.5C44 12.92 35.08 4 24 4z"/>
 
 <path style="fill:#3f3f3f" d="M20 20c0 1.657-1.343 0-3 0s-3 1.657-3 0 1.343-3 3-3 3 1.343 3 3zm14 0c0 1.657-1.343 0-3 0s-3 1.657-3 0 1.343-3 3-3 3 1.343 3 3z"/>
 <path style="fill:none;stroke:#3f3f3f;stroke-width:2;stroke-linecap:round" d="M15 30s3 4 9 4 9-4 9-4"/>
 <path style="fill:#c2352a" d="M8 8c-2.3-3-6.5 0-1 5.5C12.5 8 8.3 5 6 8c.8-1.3 1.2-1.3 2 0zm34 5c-2-2.5-5.5 0-1 4.5 4.5-4.5 1-7-1-4.5.7-1.1 1.3-1.1 2 0zm-1 20c-2.5-3.2-7 0-1 6 6-6 1.5-9.2-1-6 1-1.5 1-1.5 2 0z"/>


</svg>